ISO-10303-21;
HEADER;
/* Generated by software containing ST-Developer
 * from STEP Tools, Inc. (www.steptools.com) 
 */
/* OPTION: using custom renumber hook */

FILE_DESCRIPTION(
/* description */ ('STEP AP242 Edition 2',
'CAx-IF Rec.Pracs.---Representation and Presentation of Product Manufa
cturing Information (PMI)---4.0---2014-10-13',
'CAx-IF Rec.Pracs.---3D Tessellated Geometry---0.4---2014-09-14','2;1',
'CAx-IF Rec.Pracs.---User Defined Attributes---1.5---2016-08-15'),
/* implementation_level */ '2;1');

FILE_NAME(
/* name */ 'case',
/* time_stamp */ '2026-08-03T16:17:28Z',
/* author */ (''),
/* organization */ (''),
/* preprocessor_version */ 'ST-DEVELOPER v20',
/* originating_system */ 'ONSHAPE BY PTC INC, 1.218',
/* authorisation */ '  ');

FILE_SCHEMA (('AP242_MANAGED_MODEL_BASED_3D_ENGINEERING_MIM_LF { 1 0 10303 442 3 1 4 }'));
ENDSEC;

DATA;
#10=SHAPE_REPRESENTATION_RELATIONSHIP('','',#457,#11);
#11=ADVANCED_BREP_SHAPE_REPRESENTATION('',(#455),#768);
#12=ELLIPSE('',#477,0.00898025612106915,0.00635);
#13=ELLIPSE('',#479,0.00898025612106915,0.00635);
#14=ELLIPSE('',#496,0.00898025612106915,0.00635);
#15=ELLIPSE('',#499,0.00898025612106915,0.00635);
#16=ELLIPSE('',#500,0.00898025612106916,0.00635);
#17=ELLIPSE('',#502,0.00898025612106915,0.00635);
#18=ELLIPSE('',#504,0.00898025612106915,0.00635);
#19=CYLINDRICAL_SURFACE('',#474,0.00635);
#20=CYLINDRICAL_SURFACE('',#476,0.00635);
#21=CYLINDRICAL_SURFACE('',#478,0.00635);
#22=CYLINDRICAL_SURFACE('',#483,0.00635);
#23=CYLINDRICAL_SURFACE('',#485,0.00635);
#24=CYLINDRICAL_SURFACE('',#487,0.00635);
#25=CYLINDRICAL_SURFACE('',#489,0.00635);
#26=CYLINDRICAL_SURFACE('',#495,0.00635);
#27=CYLINDRICAL_SURFACE('',#497,0.00635);
#28=CYLINDRICAL_SURFACE('',#498,0.00635);
#29=CYLINDRICAL_SURFACE('',#501,0.00635);
#30=CYLINDRICAL_SURFACE('',#503,0.00635);
#31=CYLINDRICAL_SURFACE('',#505,0.00635);
#32=CIRCLE('',#471,0.00635);
#33=CIRCLE('',#472,0.00635);
#34=CIRCLE('',#473,0.00635);
#35=CIRCLE('',#475,0.00635);
#36=CIRCLE('',#481,0.00635);
#37=CIRCLE('',#482,0.00635);
#38=CIRCLE('',#484,0.00635);
#39=CIRCLE('',#486,0.00635);
#40=CIRCLE('',#488,0.00635);
#41=CIRCLE('',#490,0.00635);
#42=CIRCLE('',#492,0.00635);
#43=CIRCLE('',#494,0.00635);
#44=SPHERICAL_SURFACE('',#470,0.00635);
#45=SPHERICAL_SURFACE('',#480,0.00635);
#46=SPHERICAL_SURFACE('',#491,0.00635);
#47=SPHERICAL_SURFACE('',#493,0.00635);
#48=ORIENTED_EDGE('',*,*,#168,.T.);
#49=ORIENTED_EDGE('',*,*,#169,.T.);
#50=ORIENTED_EDGE('',*,*,#170,.T.);
#51=ORIENTED_EDGE('',*,*,#171,.T.);
#52=ORIENTED_EDGE('',*,*,#172,.F.);
#53=ORIENTED_EDGE('',*,*,#173,.T.);
#54=ORIENTED_EDGE('',*,*,#174,.T.);
#55=ORIENTED_EDGE('',*,*,#175,.F.);
#56=ORIENTED_EDGE('',*,*,#176,.T.);
#57=ORIENTED_EDGE('',*,*,#177,.T.);
#58=ORIENTED_EDGE('',*,*,#178,.T.);
#59=ORIENTED_EDGE('',*,*,#179,.T.);
#60=ORIENTED_EDGE('',*,*,#180,.T.);
#61=ORIENTED_EDGE('',*,*,#181,.T.);
#62=ORIENTED_EDGE('',*,*,#182,.T.);
#63=ORIENTED_EDGE('',*,*,#183,.T.);
#64=ORIENTED_EDGE('',*,*,#184,.T.);
#65=ORIENTED_EDGE('',*,*,#172,.T.);
#66=ORIENTED_EDGE('',*,*,#185,.F.);
#67=ORIENTED_EDGE('',*,*,#186,.F.);
#68=ORIENTED_EDGE('',*,*,#173,.F.);
#69=ORIENTED_EDGE('',*,*,#184,.F.);
#70=ORIENTED_EDGE('',*,*,#187,.T.);
#71=ORIENTED_EDGE('',*,*,#188,.T.);
#72=ORIENTED_EDGE('',*,*,#174,.F.);
#73=ORIENTED_EDGE('',*,*,#188,.F.);
#74=ORIENTED_EDGE('',*,*,#189,.T.);
#75=ORIENTED_EDGE('',*,*,#190,.T.);
#76=ORIENTED_EDGE('',*,*,#185,.T.);
#77=ORIENTED_EDGE('',*,*,#175,.T.);
#78=ORIENTED_EDGE('',*,*,#190,.F.);
#79=ORIENTED_EDGE('',*,*,#191,.F.);
#80=ORIENTED_EDGE('',*,*,#192,.T.);
#81=ORIENTED_EDGE('',*,*,#193,.T.);
#82=ORIENTED_EDGE('',*,*,#194,.T.);
#83=ORIENTED_EDGE('',*,*,#195,.T.);
#84=ORIENTED_EDGE('',*,*,#196,.T.);
#85=ORIENTED_EDGE('',*,*,#197,.T.);
#86=ORIENTED_EDGE('',*,*,#198,.T.);
#87=ORIENTED_EDGE('',*,*,#199,.T.);
#88=ORIENTED_EDGE('',*,*,#200,.T.);
#89=ORIENTED_EDGE('',*,*,#201,.T.);
#90=ORIENTED_EDGE('',*,*,#202,.F.);
#91=ORIENTED_EDGE('',*,*,#203,.F.);
#92=ORIENTED_EDGE('',*,*,#202,.T.);
#93=ORIENTED_EDGE('',*,*,#204,.T.);
#94=ORIENTED_EDGE('',*,*,#205,.T.);
#95=ORIENTED_EDGE('',*,*,#206,.T.);
#96=ORIENTED_EDGE('',*,*,#206,.F.);
#97=ORIENTED_EDGE('',*,*,#207,.T.);
#98=ORIENTED_EDGE('',*,*,#208,.T.);
#99=ORIENTED_EDGE('',*,*,#203,.T.);
#100=ORIENTED_EDGE('',*,*,#187,.F.);
#101=ORIENTED_EDGE('',*,*,#186,.T.);
#102=ORIENTED_EDGE('',*,*,#191,.T.);
#103=ORIENTED_EDGE('',*,*,#189,.F.);
#104=ORIENTED_EDGE('',*,*,#209,.F.);
#105=ORIENTED_EDGE('',*,*,#210,.F.);
#106=ORIENTED_EDGE('',*,*,#211,.F.);
#107=ORIENTED_EDGE('',*,*,#210,.T.);
#108=ORIENTED_EDGE('',*,*,#195,.F.);
#109=ORIENTED_EDGE('',*,*,#212,.F.);
#110=ORIENTED_EDGE('',*,*,#197,.F.);
#111=ORIENTED_EDGE('',*,*,#211,.T.);
#112=ORIENTED_EDGE('',*,*,#196,.F.);
#113=ORIENTED_EDGE('',*,*,#213,.F.);
#114=ORIENTED_EDGE('',*,*,#208,.F.);
#115=ORIENTED_EDGE('',*,*,#209,.T.);
#116=ORIENTED_EDGE('',*,*,#207,.F.);
#117=ORIENTED_EDGE('',*,*,#214,.F.);
#118=ORIENTED_EDGE('',*,*,#192,.F.);
#119=ORIENTED_EDGE('',*,*,#215,.F.);
#120=ORIENTED_EDGE('',*,*,#216,.F.);
#121=ORIENTED_EDGE('',*,*,#212,.T.);
#122=ORIENTED_EDGE('',*,*,#216,.T.);
#123=ORIENTED_EDGE('',*,*,#183,.F.);
#124=ORIENTED_EDGE('',*,*,#217,.F.);
#125=ORIENTED_EDGE('',*,*,#198,.F.);
#126=ORIENTED_EDGE('',*,*,#213,.T.);
#127=ORIENTED_EDGE('',*,*,#199,.F.);
#128=ORIENTED_EDGE('',*,*,#218,.F.);
#129=ORIENTED_EDGE('',*,*,#200,.F.);
#130=ORIENTED_EDGE('',*,*,#214,.T.);
#131=ORIENTED_EDGE('',*,*,#205,.F.);
#132=ORIENTED_EDGE('',*,*,#219,.F.);
#133=ORIENTED_EDGE('',*,*,#193,.F.);
#134=ORIENTED_EDGE('',*,*,#215,.T.);
#135=ORIENTED_EDGE('',*,*,#194,.F.);
#136=ORIENTED_EDGE('',*,*,#220,.F.);
#137=ORIENTED_EDGE('',*,*,#180,.F.);
#138=ORIENTED_EDGE('',*,*,#218,.T.);
#139=ORIENTED_EDGE('',*,*,#217,.T.);
#140=ORIENTED_EDGE('',*,*,#221,.F.);
#141=ORIENTED_EDGE('',*,*,#220,.T.);
#142=ORIENTED_EDGE('',*,*,#219,.T.);
#143=ORIENTED_EDGE('',*,*,#222,.F.);
#144=ORIENTED_EDGE('',*,*,#221,.T.);
#145=ORIENTED_EDGE('',*,*,#182,.F.);
#146=ORIENTED_EDGE('',*,*,#223,.F.);
#147=ORIENTED_EDGE('',*,*,#201,.F.);
#148=ORIENTED_EDGE('',*,*,#222,.T.);
#149=ORIENTED_EDGE('',*,*,#204,.F.);
#150=ORIENTED_EDGE('',*,*,#223,.T.);
#151=ORIENTED_EDGE('',*,*,#181,.F.);
#152=ORIENTED_EDGE('',*,*,#224,.F.);
#153=ORIENTED_EDGE('',*,*,#168,.F.);
#154=ORIENTED_EDGE('',*,*,#225,.F.);
#155=ORIENTED_EDGE('',*,*,#178,.F.);
#156=ORIENTED_EDGE('',*,*,#225,.T.);
#157=ORIENTED_EDGE('',*,*,#171,.F.);
#158=ORIENTED_EDGE('',*,*,#226,.F.);
#159=ORIENTED_EDGE('',*,*,#179,.F.);
#160=ORIENTED_EDGE('',*,*,#224,.T.);
#161=ORIENTED_EDGE('',*,*,#177,.F.);
#162=ORIENTED_EDGE('',*,*,#227,.F.);
#163=ORIENTED_EDGE('',*,*,#169,.F.);
#164=ORIENTED_EDGE('',*,*,#226,.T.);
#165=ORIENTED_EDGE('',*,*,#170,.F.);
#166=ORIENTED_EDGE('',*,*,#227,.T.);
#167=ORIENTED_EDGE('',*,*,#176,.F.);
#168=EDGE_CURVE('',#228,#229,#263,.T.);
#169=EDGE_CURVE('',#229,#230,#264,.T.);
#170=EDGE_CURVE('',#230,#231,#265,.T.);
#171=EDGE_CURVE('',#231,#228,#266,.T.);
#172=EDGE_CURVE('',#232,#233,#267,.T.);
#173=EDGE_CURVE('',#232,#234,#268,.T.);
#174=EDGE_CURVE('',#234,#235,#269,.T.);
#175=EDGE_CURVE('',#233,#235,#270,.T.);
#176=EDGE_CURVE('',#236,#237,#271,.T.);
#177=EDGE_CURVE('',#237,#238,#272,.F.);
#178=EDGE_CURVE('',#238,#239,#273,.F.);
#179=EDGE_CURVE('',#239,#236,#274,.T.);
#180=EDGE_CURVE('',#240,#241,#275,.T.);
#181=EDGE_CURVE('',#241,#242,#276,.T.);
#182=EDGE_CURVE('',#242,#243,#277,.F.);
#183=EDGE_CURVE('',#243,#240,#278,.F.);
#184=EDGE_CURVE('',#244,#232,#279,.T.);
#185=EDGE_CURVE('',#245,#233,#280,.T.);
#186=EDGE_CURVE('',#244,#245,#281,.T.);
#187=EDGE_CURVE('',#244,#246,#282,.T.);
#188=EDGE_CURVE('',#246,#234,#283,.T.);
#189=EDGE_CURVE('',#246,#247,#284,.T.);
#190=EDGE_CURVE('',#247,#235,#285,.T.);
#191=EDGE_CURVE('',#245,#247,#286,.T.);
#192=EDGE_CURVE('',#248,#249,#287,.T.);
#193=EDGE_CURVE('',#249,#250,#288,.T.);
#194=EDGE_CURVE('',#250,#251,#289,.F.);
#195=EDGE_CURVE('',#251,#248,#290,.F.);
#196=EDGE_CURVE('',#252,#253,#291,.F.);
#197=EDGE_CURVE('',#253,#254,#292,.T.);
#198=EDGE_CURVE('',#254,#255,#293,.T.);
#199=EDGE_CURVE('',#255,#252,#294,.F.);
#200=EDGE_CURVE('',#256,#257,#295,.T.);
#201=EDGE_CURVE('',#257,#258,#296,.T.);
#202=EDGE_CURVE('',#259,#258,#297,.T.);
#203=EDGE_CURVE('',#256,#259,#298,.T.);
#204=EDGE_CURVE('',#258,#260,#299,.F.);
#205=EDGE_CURVE('',#260,#261,#300,.F.);
#206=EDGE_CURVE('',#261,#259,#301,.T.);
#207=EDGE_CURVE('',#261,#262,#302,.F.);
#208=EDGE_CURVE('',#262,#256,#303,.T.);
#209=EDGE_CURVE('',#248,#262,#32,.F.);
#210=EDGE_CURVE('',#253,#248,#33,.F.);
#211=EDGE_CURVE('',#262,#253,#34,.F.);
#212=EDGE_CURVE('',#254,#251,#35,.T.);
#213=EDGE_CURVE('',#256,#252,#12,.T.);
#214=EDGE_CURVE('',#249,#261,#13,.T.);
#215=EDGE_CURVE('',#240,#251,#36,.F.);
#216=EDGE_CURVE('',#254,#240,#37,.F.);
#217=EDGE_CURVE('',#255,#243,#38,.T.);
#218=EDGE_CURVE('',#257,#255,#39,.T.);
#219=EDGE_CURVE('',#250,#260,#40,.T.);
#220=EDGE_CURVE('',#241,#250,#41,.T.);
#221=EDGE_CURVE('',#257,#243,#42,.F.);
#222=EDGE_CURVE('',#241,#260,#43,.F.);
#223=EDGE_CURVE('',#258,#242,#14,.T.);
#224=EDGE_CURVE('',#229,#238,#15,.T.);
#225=EDGE_CURVE('',#239,#228,#16,.F.);
#226=EDGE_CURVE('',#236,#231,#17,.F.);
#227=EDGE_CURVE('',#230,#237,#18,.T.);
#228=VERTEX_POINT('',#646);
#229=VERTEX_POINT('',#647);
#230=VERTEX_POINT('',#649);
#231=VERTEX_POINT('',#651);
#232=VERTEX_POINT('',#654);
#233=VERTEX_POINT('',#655);
#234=VERTEX_POINT('',#657);
#235=VERTEX_POINT('',#659);
#236=VERTEX_POINT('',#663);
#237=VERTEX_POINT('',#664);
#238=VERTEX_POINT('',#666);
#239=VERTEX_POINT('',#668);
#240=VERTEX_POINT('',#671);
#241=VERTEX_POINT('',#672);
#242=VERTEX_POINT('',#674);
#243=VERTEX_POINT('',#676);
#244=VERTEX_POINT('',#680);
#245=VERTEX_POINT('',#682);
#246=VERTEX_POINT('',#686);
#247=VERTEX_POINT('',#690);
#248=VERTEX_POINT('',#696);
#249=VERTEX_POINT('',#697);
#250=VERTEX_POINT('',#699);
#251=VERTEX_POINT('',#701);
#252=VERTEX_POINT('',#705);
#253=VERTEX_POINT('',#706);
#254=VERTEX_POINT('',#708);
#255=VERTEX_POINT('',#710);
#256=VERTEX_POINT('',#714);
#257=VERTEX_POINT('',#715);
#258=VERTEX_POINT('',#717);
#259=VERTEX_POINT('',#719);
#260=VERTEX_POINT('',#723);
#261=VERTEX_POINT('',#725);
#262=VERTEX_POINT('',#729);
#263=LINE('',#645,#304);
#264=LINE('',#648,#305);
#265=LINE('',#650,#306);
#266=LINE('',#652,#307);
#267=LINE('',#653,#308);
#268=LINE('',#656,#309);
#269=LINE('',#658,#310);
#270=LINE('',#660,#311);
#271=LINE('',#662,#312);
#272=LINE('',#665,#313);
#273=LINE('',#667,#314);
#274=LINE('',#669,#315);
#275=LINE('',#670,#316);
#276=LINE('',#673,#317);
#277=LINE('',#675,#318);
#278=LINE('',#677,#319);
#279=LINE('',#679,#320);
#280=LINE('',#681,#321);
#281=LINE('',#683,#322);
#282=LINE('',#685,#323);
#283=LINE('',#687,#324);
#284=LINE('',#689,#325);
#285=LINE('',#691,#326);
#286=LINE('',#693,#327);
#287=LINE('',#695,#328);
#288=LINE('',#698,#329);
#289=LINE('',#700,#330);
#290=LINE('',#702,#331);
#291=LINE('',#704,#332);
#292=LINE('',#707,#333);
#293=LINE('',#709,#334);
#294=LINE('',#711,#335);
#295=LINE('',#713,#336);
#296=LINE('',#716,#337);
#297=LINE('',#718,#338);
#298=LINE('',#720,#339);
#299=LINE('',#722,#340);
#300=LINE('',#724,#341);
#301=LINE('',#726,#342);
#302=LINE('',#728,#343);
#303=LINE('',#730,#344);
#304=VECTOR('',#510,1.);
#305=VECTOR('',#511,1.);
#306=VECTOR('',#512,1.);
#307=VECTOR('',#513,1.);
#308=VECTOR('',#514,1.);
#309=VECTOR('',#515,1.);
#310=VECTOR('',#516,1.);
#311=VECTOR('',#517,1.);
#312=VECTOR('',#520,1.);
#313=VECTOR('',#521,1.);
#314=VECTOR('',#522,1.);
#315=VECTOR('',#523,1.);
#316=VECTOR('',#524,1.);
#317=VECTOR('',#525,1.);
#318=VECTOR('',#526,1.);
#319=VECTOR('',#527,1.);
#320=VECTOR('',#530,1.);
#321=VECTOR('',#531,1.);
#322=VECTOR('',#532,1.);
#323=VECTOR('',#535,1.);
#324=VECTOR('',#536,1.);
#325=VECTOR('',#539,1.);
#326=VECTOR('',#540,1.);
#327=VECTOR('',#543,1.);
#328=VECTOR('',#546,1.);
#329=VECTOR('',#547,1.);
#330=VECTOR('',#548,1.);
#331=VECTOR('',#549,1.);
#332=VECTOR('',#552,1.);
#333=VECTOR('',#553,1.);
#334=VECTOR('',#554,1.);
#335=VECTOR('',#555,1.);
#336=VECTOR('',#558,1.);
#337=VECTOR('',#559,1.);
#338=VECTOR('',#560,1.);
#339=VECTOR('',#561,1.);
#340=VECTOR('',#564,1.);
#341=VECTOR('',#565,1.);
#342=VECTOR('',#566,1.);
#343=VECTOR('',#569,1.);
#344=VECTOR('',#570,1.);
#345=EDGE_LOOP('',(#48,#49,#50,#51));
#346=EDGE_LOOP('',(#52,#53,#54,#55));
#347=EDGE_LOOP('',(#56,#57,#58,#59));
#348=EDGE_LOOP('',(#60,#61,#62,#63));
#349=EDGE_LOOP('',(#64,#65,#66,#67));
#350=EDGE_LOOP('',(#68,#69,#70,#71));
#351=EDGE_LOOP('',(#72,#73,#74,#75));
#352=EDGE_LOOP('',(#76,#77,#78,#79));
#353=EDGE_LOOP('',(#80,#81,#82,#83));
#354=EDGE_LOOP('',(#84,#85,#86,#87));
#355=EDGE_LOOP('',(#88,#89,#90,#91));
#356=EDGE_LOOP('',(#92,#93,#94,#95));
#357=EDGE_LOOP('',(#96,#97,#98,#99));
#358=EDGE_LOOP('',(#100,#101,#102,#103));
#359=EDGE_LOOP('',(#104,#105,#106));
#360=EDGE_LOOP('',(#107,#108,#109,#110));
#361=EDGE_LOOP('',(#111,#112,#113,#114));
#362=EDGE_LOOP('',(#115,#116,#117,#118));
#363=EDGE_LOOP('',(#119,#120,#121));
#364=EDGE_LOOP('',(#122,#123,#124,#125));
#365=EDGE_LOOP('',(#126,#127,#128,#129));
#366=EDGE_LOOP('',(#130,#131,#132,#133));
#367=EDGE_LOOP('',(#134,#135,#136,#137));
#368=EDGE_LOOP('',(#138,#139,#140));
#369=EDGE_LOOP('',(#141,#142,#143));
#370=EDGE_LOOP('',(#144,#145,#146,#147));
#371=EDGE_LOOP('',(#148,#149,#150,#151));
#372=EDGE_LOOP('',(#152,#153,#154,#155));
#373=EDGE_LOOP('',(#156,#157,#158,#159));
#374=EDGE_LOOP('',(#160,#161,#162,#163));
#375=EDGE_LOOP('',(#164,#165,#166,#167));
#376=FACE_BOUND('',#345,.T.);
#377=FACE_BOUND('',#346,.T.);
#378=FACE_BOUND('',#347,.T.);
#379=FACE_BOUND('',#348,.T.);
#380=FACE_BOUND('',#349,.T.);
#381=FACE_BOUND('',#350,.T.);
#382=FACE_BOUND('',#351,.T.);
#383=FACE_BOUND('',#352,.T.);
#384=FACE_BOUND('',#353,.T.);
#385=FACE_BOUND('',#354,.T.);
#386=FACE_BOUND('',#355,.T.);
#387=FACE_BOUND('',#356,.T.);
#388=FACE_BOUND('',#357,.T.);
#389=FACE_BOUND('',#358,.T.);
#390=FACE_BOUND('',#359,.T.);
#391=FACE_BOUND('',#360,.T.);
#392=FACE_BOUND('',#361,.T.);
#393=FACE_BOUND('',#362,.T.);
#394=FACE_BOUND('',#363,.T.);
#395=FACE_BOUND('',#364,.T.);
#396=FACE_BOUND('',#365,.T.);
#397=FACE_BOUND('',#366,.T.);
#398=FACE_BOUND('',#367,.T.);
#399=FACE_BOUND('',#368,.T.);
#400=FACE_BOUND('',#369,.T.);
#401=FACE_BOUND('',#370,.T.);
#402=FACE_BOUND('',#371,.T.);
#403=FACE_BOUND('',#372,.T.);
#404=FACE_BOUND('',#373,.T.);
#405=FACE_BOUND('',#374,.T.);
#406=FACE_BOUND('',#375,.T.);
#407=PLANE('',#459);
#408=PLANE('',#460);
#409=PLANE('',#461);
#410=PLANE('',#462);
#411=PLANE('',#463);
#412=PLANE('',#464);
#413=PLANE('',#465);
#414=PLANE('',#466);
#415=PLANE('',#467);
#416=PLANE('',#468);
#417=PLANE('',#469);
#418=ADVANCED_FACE('',(#376,#377),#407,.T.);
#419=ADVANCED_FACE('',(#378,#379),#408,.F.);
#420=ADVANCED_FACE('',(#380),#409,.F.);
#421=ADVANCED_FACE('',(#381),#410,.T.);
#422=ADVANCED_FACE('',(#382),#411,.T.);
#423=ADVANCED_FACE('',(#383),#412,.F.);
#424=ADVANCED_FACE('',(#384),#413,.T.);
#425=ADVANCED_FACE('',(#385),#414,.F.);
#426=ADVANCED_FACE('',(#386),#415,.F.);
#427=ADVANCED_FACE('',(#387),#416,.T.);
#428=ADVANCED_FACE('',(#388,#389),#417,.T.);
#429=ADVANCED_FACE('',(#390),#44,.T.);
#430=ADVANCED_FACE('',(#391),#19,.T.);
#431=ADVANCED_FACE('',(#392),#20,.T.);
#432=ADVANCED_FACE('',(#393),#21,.T.);
#433=ADVANCED_FACE('',(#394),#45,.T.);
#434=ADVANCED_FACE('',(#395),#22,.T.);
#435=ADVANCED_FACE('',(#396),#23,.T.);
#436=ADVANCED_FACE('',(#397),#24,.T.);
#437=ADVANCED_FACE('',(#398),#25,.T.);
#438=ADVANCED_FACE('',(#399),#46,.T.);
#439=ADVANCED_FACE('',(#400),#47,.T.);
#440=ADVANCED_FACE('',(#401),#26,.T.);
#441=ADVANCED_FACE('',(#402),#27,.T.);
#442=ADVANCED_FACE('',(#403),#28,.T.);
#443=ADVANCED_FACE('',(#404),#29,.T.);
#444=ADVANCED_FACE('',(#405),#30,.T.);
#445=ADVANCED_FACE('',(#406),#31,.T.);
#446=CLOSED_SHELL('',(#418,#419,#420,#421,#422,#423,#424,#425,#426,#427,
#428,#429,#430,#431,#432,#433,#434,#435,#436,#437,#438,#439,#440,#441,#442,
#443,#444,#445));
#447=STYLED_ITEM('',(#448),#455);
#448=PRESENTATION_STYLE_ASSIGNMENT((#449));
#449=SURFACE_STYLE_USAGE(.BOTH.,#450);
#450=SURFACE_SIDE_STYLE('',(#451));
#451=SURFACE_STYLE_FILL_AREA(#452);
#452=FILL_AREA_STYLE('',(#453));
#453=FILL_AREA_STYLE_COLOUR('',#454);
#454=COLOUR_RGB('',0.615686274509804,0.811764705882353,0.929411764705882);
#455=MANIFOLD_SOLID_BREP('Part 1',#446);
#456=SHAPE_DEFINITION_REPRESENTATION(#773,#457);
#457=SHAPE_REPRESENTATION('Part 1',(#458),#768);
#458=AXIS2_PLACEMENT_3D('',#643,#506,#507);
#459=AXIS2_PLACEMENT_3D('',#644,#508,#509);
#460=AXIS2_PLACEMENT_3D('',#661,#518,#519);
#461=AXIS2_PLACEMENT_3D('',#678,#528,#529);
#462=AXIS2_PLACEMENT_3D('',#684,#533,#534);
#463=AXIS2_PLACEMENT_3D('',#688,#537,#538);
#464=AXIS2_PLACEMENT_3D('',#692,#541,#542);
#465=AXIS2_PLACEMENT_3D('',#694,#544,#545);
#466=AXIS2_PLACEMENT_3D('',#703,#550,#551);
#467=AXIS2_PLACEMENT_3D('',#712,#556,#557);
#468=AXIS2_PLACEMENT_3D('',#721,#562,#563);
#469=AXIS2_PLACEMENT_3D('',#727,#567,#568);
#470=AXIS2_PLACEMENT_3D('',#731,#571,#572);
#471=AXIS2_PLACEMENT_3D('',#732,#573,#574);
#472=AXIS2_PLACEMENT_3D('',#733,#575,#576);
#473=AXIS2_PLACEMENT_3D('',#734,#577,#578);
#474=AXIS2_PLACEMENT_3D('',#735,#579,#580);
#475=AXIS2_PLACEMENT_3D('',#736,#581,#582);
#476=AXIS2_PLACEMENT_3D('',#737,#583,#584);
#477=AXIS2_PLACEMENT_3D('',#738,#585,#586);
#478=AXIS2_PLACEMENT_3D('',#739,#587,#588);
#479=AXIS2_PLACEMENT_3D('',#740,#589,#590);
#480=AXIS2_PLACEMENT_3D('',#741,#591,#592);
#481=AXIS2_PLACEMENT_3D('',#742,#593,#594);
#482=AXIS2_PLACEMENT_3D('',#743,#595,#596);
#483=AXIS2_PLACEMENT_3D('',#744,#597,#598);
#484=AXIS2_PLACEMENT_3D('',#745,#599,#600);
#485=AXIS2_PLACEMENT_3D('',#746,#601,#602);
#486=AXIS2_PLACEMENT_3D('',#747,#603,#604);
#487=AXIS2_PLACEMENT_3D('',#748,#605,#606);
#488=AXIS2_PLACEMENT_3D('',#749,#607,#608);
#489=AXIS2_PLACEMENT_3D('',#750,#609,#610);
#490=AXIS2_PLACEMENT_3D('',#751,#611,#612);
#491=AXIS2_PLACEMENT_3D('',#752,#613,#614);
#492=AXIS2_PLACEMENT_3D('',#753,#615,#616);
#493=AXIS2_PLACEMENT_3D('',#754,#617,#618);
#494=AXIS2_PLACEMENT_3D('',#755,#619,#620);
#495=AXIS2_PLACEMENT_3D('',#756,#621,#622);
#496=AXIS2_PLACEMENT_3D('',#757,#623,#624);
#497=AXIS2_PLACEMENT_3D('',#758,#625,#626);
#498=AXIS2_PLACEMENT_3D('',#759,#627,#628);
#499=AXIS2_PLACEMENT_3D('',#760,#629,#630);
#500=AXIS2_PLACEMENT_3D('',#761,#631,#632);
#501=AXIS2_PLACEMENT_3D('',#762,#633,#634);
#502=AXIS2_PLACEMENT_3D('',#763,#635,#636);
#503=AXIS2_PLACEMENT_3D('',#764,#637,#638);
#504=AXIS2_PLACEMENT_3D('',#765,#639,#640);
#505=AXIS2_PLACEMENT_3D('',#766,#641,#642);
#506=DIRECTION('',(0.,0.,1.));
#507=DIRECTION('',(1.,0.,0.));
#508=DIRECTION('',(0.,0.,1.));
#509=DIRECTION('',(1.,0.,0.));
#510=DIRECTION('',(0.,-1.,0.));
#511=DIRECTION('',(-1.,-1.17079199728468E-16,0.));
#512=DIRECTION('',(-6.82961998416066E-17,1.,0.));
#513=DIRECTION('',(1.,1.17079199728468E-16,0.));
#514=DIRECTION('',(0.,-1.,0.));
#515=DIRECTION('',(-1.,-1.21415466385078E-16,0.));
#516=DIRECTION('',(0.,-1.,0.));
#517=DIRECTION('',(-1.,0.,0.));
#518=DIRECTION('',(0.,0.,1.));
#519=DIRECTION('',(1.,0.,0.));
#520=DIRECTION('',(6.82961998416066E-17,-1.,0.));
#521=DIRECTION('',(-1.,-1.17079199728468E-16,0.));
#522=DIRECTION('',(0.,-1.,0.));
#523=DIRECTION('',(-1.,-1.17079199728468E-16,0.));
#524=DIRECTION('',(0.,-1.,0.));
#525=DIRECTION('',(-1.,0.,0.));
#526=DIRECTION('',(0.,-1.,0.));
#527=DIRECTION('',(-1.,0.,0.));
#528=DIRECTION('',(1.,0.,0.));
#529=DIRECTION('',(0.,0.,-1.));
#530=DIRECTION('',(0.,0.,-1.));
#531=DIRECTION('',(0.,0.,-1.));
#532=DIRECTION('',(0.,-1.,0.));
#533=DIRECTION('',(1.21415466385078E-16,-1.,0.));
#534=DIRECTION('',(1.,1.21415466385078E-16,0.));
#535=DIRECTION('',(-1.,-1.21415466385078E-16,0.));
#536=DIRECTION('',(0.,0.,-1.));
#537=DIRECTION('',(1.,0.,0.));
#538=DIRECTION('',(0.,0.,-1.));
#539=DIRECTION('',(0.,-1.,0.));
#540=DIRECTION('',(0.,0.,-1.));
#541=DIRECTION('',(0.,-1.,0.));
#542=DIRECTION('',(0.,0.,-1.));
#543=DIRECTION('',(-1.,0.,0.));
#544=DIRECTION('',(1.,0.,0.));
#545=DIRECTION('',(0.,0.,-1.));
#546=DIRECTION('',(0.,-1.,0.));
#547=DIRECTION('',(0.,0.,-1.));
#548=DIRECTION('',(0.,-1.,0.));
#549=DIRECTION('',(0.,0.,-1.));
#550=DIRECTION('',(0.,-1.,0.));
#551=DIRECTION('',(0.,0.,-1.));
#552=DIRECTION('',(-1.,0.,0.));
#553=DIRECTION('',(0.,0.,-1.));
#554=DIRECTION('',(-1.,0.,0.));
#555=DIRECTION('',(0.,0.,-1.));
#556=DIRECTION('',(1.,0.,0.));
#557=DIRECTION('',(0.,0.,-1.));
#558=DIRECTION('',(0.,0.,-1.));
#559=DIRECTION('',(0.,-1.,0.));
#560=DIRECTION('',(0.,0.,-1.));
#561=DIRECTION('',(0.,-1.,0.));
#562=DIRECTION('',(0.,-1.,0.));
#563=DIRECTION('',(0.,0.,-1.));
#564=DIRECTION('',(-1.,0.,0.));
#565=DIRECTION('',(0.,0.,-1.));
#566=DIRECTION('',(-1.,0.,0.));
#567=DIRECTION('',(0.,0.,1.));
#568=DIRECTION('',(1.,0.,0.));
#569=DIRECTION('',(0.,-1.,0.));
#570=DIRECTION('',(-1.,0.,0.));
#571=DIRECTION('',(0.,1.,0.));
#572=DIRECTION('',(0.,0.,1.));
#573=DIRECTION('',(0.,1.,0.));
#574=DIRECTION('',(0.,0.,1.));
#575=DIRECTION('',(0.,0.,1.));
#576=DIRECTION('',(1.,0.,0.));
#577=DIRECTION('',(1.,0.,0.));
#578=DIRECTION('',(0.,0.,-1.));
#579=DIRECTION('',(0.,0.,1.));
#580=DIRECTION('',(1.,0.,0.));
#581=DIRECTION('',(9.56146797782493E-16,0.,-1.));
#582=DIRECTION('',(-1.,0.,-9.56146797782493E-16));
#583=DIRECTION('',(1.,0.,0.));
#584=DIRECTION('',(0.,0.,-1.));
#585=DIRECTION('',(-0.707106781186548,0.,-0.707106781186548));
#586=DIRECTION('',(0.707106781186548,0.,-0.707106781186548));
#587=DIRECTION('',(0.,-1.,0.));
#588=DIRECTION('',(0.,0.,-1.));
#589=DIRECTION('',(0.,-0.707106781186548,-0.707106781186548));
#590=DIRECTION('',(0.,0.707106781186548,-0.707106781186548));
#591=DIRECTION('',(0.,1.,-9.56146797782493E-16));
#592=DIRECTION('',(0.,9.56146797782493E-16,1.));
#593=DIRECTION('',(0.,1.,0.));
#594=DIRECTION('',(0.,0.,1.));
#595=DIRECTION('',(1.,0.,0.));
#596=DIRECTION('',(0.,0.,-1.));
#597=DIRECTION('',(-1.,0.,0.));
#598=DIRECTION('',(0.,0.,1.));
#599=DIRECTION('',(-1.,0.,0.));
#600=DIRECTION('',(0.,0.,1.));
#601=DIRECTION('',(0.,0.,-1.));
#602=DIRECTION('',(-1.,0.,0.));
#603=DIRECTION('',(0.,0.,-1.));
#604=DIRECTION('',(-1.,0.,0.));
#605=DIRECTION('',(0.,0.,-1.));
#606=DIRECTION('',(-1.,0.,0.));
#607=DIRECTION('',(0.,0.,-1.));
#608=DIRECTION('',(-1.,0.,0.));
#609=DIRECTION('',(0.,1.,0.));
#610=DIRECTION('',(0.,0.,1.));
#611=DIRECTION('',(2.18547839493141E-15,-1.,0.));
#612=DIRECTION('',(1.,2.18547839493141E-15,0.));
#613=DIRECTION('',(0.,1.,-9.56146797782493E-16));
#614=DIRECTION('',(0.,9.56146797782493E-16,1.));
#615=DIRECTION('',(-2.18547839493141E-15,1.,0.));
#616=DIRECTION('',(-1.,-2.18547839493141E-15,0.));
#617=DIRECTION('',(1.,2.18547839493141E-15,0.));
#618=DIRECTION('',(-2.18547839493141E-15,1.,0.));
#619=DIRECTION('',(1.,0.,0.));
#620=DIRECTION('',(0.,0.,-1.));
#621=DIRECTION('',(0.,-1.,0.));
#622=DIRECTION('',(0.,0.,-1.));
#623=DIRECTION('',(0.707106781186548,-0.707106781186548,0.));
#624=DIRECTION('',(-0.707106781186548,-0.707106781186548,0.));
#625=DIRECTION('',(1.,0.,0.));
#626=DIRECTION('',(0.,0.,-1.));
#627=DIRECTION('',(0.,-1.,0.));
#628=DIRECTION('',(0.,0.,-1.));
#629=DIRECTION('',(-0.707106781186548,-0.707106781186548,0.));
#630=DIRECTION('',(-0.707106781186548,0.707106781186548,0.));
#631=DIRECTION('',(0.707106781186548,-0.707106781186548,0.));
#632=DIRECTION('',(0.707106781186548,0.707106781186548,0.));
#633=DIRECTION('',(1.,1.17079199728468E-16,0.));
#634=DIRECTION('',(-1.17079199728468E-16,1.,0.));
#635=DIRECTION('',(0.707106781186547,0.707106781186548,0.));
#636=DIRECTION('',(0.707106781186548,-0.707106781186548,0.));
#637=DIRECTION('',(-1.,-1.17079199728468E-16,0.));
#638=DIRECTION('',(1.17079199728468E-16,-1.,0.));
#639=DIRECTION('',(-0.707106781186548,0.707106781186548,0.));
#640=DIRECTION('',(-0.707106781186547,-0.707106781186548,0.));
#641=DIRECTION('',(-6.82961998416066E-17,1.,0.));
#642=DIRECTION('',(-1.,-6.82961998416066E-17,0.));
#643=CARTESIAN_POINT('',(0.,0.,0.));
#644=CARTESIAN_POINT('',(0.0209825746715066,0.,0.00508));
#645=CARTESIAN_POINT('',(0.128148411393087,6.93889390390723E-18,0.00508));
#646=CARTESIAN_POINT('',(0.128148411393087,0.0509282960533307,0.00508));
#647=CARTESIAN_POINT('',(0.128148411393087,-0.0509282960533307,0.00508));
#648=CARTESIAN_POINT('',(0.039120115339756,-0.0509282960533307,0.00508));
#649=CARTESIAN_POINT('',(-0.0499081807135747,-0.0509282960533308,0.00508));
#650=CARTESIAN_POINT('',(-0.0499081807135748,-1.87193570045164E-17,0.00508));
#651=CARTESIAN_POINT('',(-0.0499081807135748,0.0509282960533307,0.00508));
#652=CARTESIAN_POINT('',(0.039120115339756,0.0509282960533307,0.00508));
#653=CARTESIAN_POINT('',(0.135282574671507,0.,0.00508));
#654=CARTESIAN_POINT('',(0.135282574671507,0.0672236829996109,0.00508));
#655=CARTESIAN_POINT('',(0.135282574671507,-0.0672236829996109,0.00508));
#656=CARTESIAN_POINT('',(0.0209825746715066,0.0672236829996109,0.00508));
#657=CARTESIAN_POINT('',(-0.0933174253284934,0.0672236829996109,0.00508));
#658=CARTESIAN_POINT('',(-0.0933174253284934,0.,0.00508));
#659=CARTESIAN_POINT('',(-0.0933174253284934,-0.0672236829996109,0.00508));
#660=CARTESIAN_POINT('',(0.0209825746715066,-0.0672236829996109,0.00508));
#661=CARTESIAN_POINT('',(0.0209825746715066,0.,0.));
#662=CARTESIAN_POINT('',(-0.056129884660244,-0.0508,0.));
#663=CARTESIAN_POINT('',(-0.056129884660244,0.05715,0.));
#664=CARTESIAN_POINT('',(-0.056129884660244,-0.05715,0.));
#665=CARTESIAN_POINT('',(0.0209825746715066,-0.05715,0.));
#666=CARTESIAN_POINT('',(0.134370115339756,-0.05715,0.));
#667=CARTESIAN_POINT('',(0.134370115339756,0.,0.));
#668=CARTESIAN_POINT('',(0.134370115339756,0.05715,0.));
#669=CARTESIAN_POINT('',(-0.049779884660244,0.05715,0.));
#670=CARTESIAN_POINT('',(0.137473251128197,-0.0746435970067978,0.));
#671=CARTESIAN_POINT('',(0.137473251128197,0.0682935970067978,0.));
#672=CARTESIAN_POINT('',(0.137473251128197,-0.0682935970067978,0.));
#673=CARTESIAN_POINT('',(-0.101858101785183,-0.0682935970067978,0.));
#674=CARTESIAN_POINT('',(-0.0955081017851835,-0.0682935970067978,0.));
#675=CARTESIAN_POINT('',(-0.0955081017851835,0.,0.));
#676=CARTESIAN_POINT('',(-0.0955081017851835,0.0682935970067978,0.));
#677=CARTESIAN_POINT('',(0.0209825746715066,0.0682935970067978,0.));
#678=CARTESIAN_POINT('',(0.135282574671507,0.,0.0762));
#679=CARTESIAN_POINT('',(0.135282574671507,0.0672236829996109,0.0762));
#680=CARTESIAN_POINT('',(0.135282574671507,0.0672236829996109,0.0762));
#681=CARTESIAN_POINT('',(0.135282574671507,-0.0672236829996109,0.0762));
#682=CARTESIAN_POINT('',(0.135282574671507,-0.0672236829996109,0.0762));
#683=CARTESIAN_POINT('',(0.135282574671507,0.,0.0762));
#684=CARTESIAN_POINT('',(0.0209825746715066,0.0672236829996109,0.0762));
#685=CARTESIAN_POINT('',(0.0209825746715066,0.0672236829996109,0.0762));
#686=CARTESIAN_POINT('',(-0.0933174253284934,0.0672236829996109,0.0762));
#687=CARTESIAN_POINT('',(-0.0933174253284934,0.0672236829996109,0.0762));
#688=CARTESIAN_POINT('',(-0.0933174253284934,0.,0.0762));
#689=CARTESIAN_POINT('',(-0.0933174253284934,0.,0.0762));
#690=CARTESIAN_POINT('',(-0.0933174253284934,-0.0672236829996109,0.0762));
#691=CARTESIAN_POINT('',(-0.0933174253284934,-0.0672236829996109,0.0762));
#692=CARTESIAN_POINT('',(0.0209825746715066,-0.0672236829996109,0.0762));
#693=CARTESIAN_POINT('',(0.0209825746715066,-0.0672236829996109,0.0762));
#694=CARTESIAN_POINT('',(0.143823251128197,0.,0.0762));
#695=CARTESIAN_POINT('',(0.143823251128197,0.,0.06985));
#696=CARTESIAN_POINT('',(0.143823251128197,0.0682935970067978,0.06985));
#697=CARTESIAN_POINT('',(0.143823251128197,-0.0682935970067978,0.06985));
#698=CARTESIAN_POINT('',(0.143823251128197,-0.0682935970067978,0.0762));
#699=CARTESIAN_POINT('',(0.143823251128197,-0.0682935970067978,0.00635));
#700=CARTESIAN_POINT('',(0.143823251128197,0.0746435970067978,0.00635));
#701=CARTESIAN_POINT('',(0.143823251128197,0.0682935970067978,0.00635));
#702=CARTESIAN_POINT('',(0.143823251128197,0.0682935970067978,0.0762));
#703=CARTESIAN_POINT('',(0.0209825746715066,0.0746435970067978,0.0762));
#704=CARTESIAN_POINT('',(0.143823251128197,0.0746435970067978,0.06985));
#705=CARTESIAN_POINT('',(-0.0955081017851835,0.0746435970067978,0.06985));
#706=CARTESIAN_POINT('',(0.137473251128197,0.0746435970067978,0.06985));
#707=CARTESIAN_POINT('',(0.137473251128197,0.0746435970067978,0.));
#708=CARTESIAN_POINT('',(0.137473251128197,0.0746435970067978,0.00635));
#709=CARTESIAN_POINT('',(0.0209825746715066,0.0746435970067978,0.00635));
#710=CARTESIAN_POINT('',(-0.0955081017851835,0.0746435970067978,0.00635));
#711=CARTESIAN_POINT('',(-0.0955081017851835,0.0746435970067978,0.0762));
#712=CARTESIAN_POINT('',(-0.101858101785183,0.,0.0762));
#713=CARTESIAN_POINT('',(-0.101858101785183,0.0682935970067978,0.0762));
#714=CARTESIAN_POINT('',(-0.101858101785183,0.0682935970067978,0.0762));
#715=CARTESIAN_POINT('',(-0.101858101785183,0.0682935970067978,0.00635));
#716=CARTESIAN_POINT('',(-0.101858101785183,0.,0.00635));
#717=CARTESIAN_POINT('',(-0.101858101785183,-0.0746435970067978,0.00635));
#718=CARTESIAN_POINT('',(-0.101858101785183,-0.0746435970067978,0.0762));
#719=CARTESIAN_POINT('',(-0.101858101785183,-0.0746435970067978,0.0762));
#720=CARTESIAN_POINT('',(-0.101858101785183,0.,0.0762));
#721=CARTESIAN_POINT('',(0.0209825746715066,-0.0746435970067978,0.0762));
#722=CARTESIAN_POINT('',(0.143823251128197,-0.0746435970067978,0.00635));
#723=CARTESIAN_POINT('',(0.137473251128197,-0.0746435970067978,0.00635));
#724=CARTESIAN_POINT('',(0.137473251128197,-0.0746435970067978,0.0762));
#725=CARTESIAN_POINT('',(0.137473251128197,-0.0746435970067978,0.0762));
#726=CARTESIAN_POINT('',(0.0209825746715066,-0.0746435970067978,0.0762));
#727=CARTESIAN_POINT('',(0.0209825746715066,0.,0.0762));
#728=CARTESIAN_POINT('',(0.137473251128197,0.,0.0762));
#729=CARTESIAN_POINT('',(0.137473251128197,0.0682935970067978,0.0762));
#730=CARTESIAN_POINT('',(-0.101858101785183,0.0682935970067978,0.0762));
#731=CARTESIAN_POINT('',(0.137473251128197,0.0682935970067978,0.06985));
#732=CARTESIAN_POINT('',(0.137473251128197,0.0682935970067978,0.06985));
#733=CARTESIAN_POINT('',(0.137473251128197,0.0682935970067978,0.06985));
#734=CARTESIAN_POINT('',(0.137473251128197,0.0682935970067978,0.06985));
#735=CARTESIAN_POINT('',(0.137473251128197,0.0682935970067978,0.0762));
#736=CARTESIAN_POINT('',(0.137473251128197,0.0682935970067978,0.00635));
#737=CARTESIAN_POINT('',(0.0209825746715066,0.0682935970067978,0.06985));
#738=CARTESIAN_POINT('',(-0.0955081017851835,0.0682935970067978,0.06985));
#739=CARTESIAN_POINT('',(0.137473251128197,0.,0.06985));
#740=CARTESIAN_POINT('',(0.137473251128197,-0.0682935970067978,0.06985));
#741=CARTESIAN_POINT('',(0.137473251128197,0.0682935970067978,0.00635));
#742=CARTESIAN_POINT('',(0.137473251128197,0.0682935970067978,0.00635));
#743=CARTESIAN_POINT('',(0.137473251128197,0.0682935970067978,0.00635));
#744=CARTESIAN_POINT('',(0.0209825746715066,0.0682935970067978,0.00635));
#745=CARTESIAN_POINT('',(-0.0955081017851835,0.0682935970067978,0.00635));
#746=CARTESIAN_POINT('',(-0.0955081017851835,0.0682935970067978,0.0762));
#747=CARTESIAN_POINT('',(-0.0955081017851835,0.0682935970067978,0.00635));
#748=CARTESIAN_POINT('',(0.137473251128197,-0.0682935970067978,0.0762));
#749=CARTESIAN_POINT('',(0.137473251128197,-0.0682935970067978,0.00635));
#750=CARTESIAN_POINT('',(0.137473251128197,0.,0.00635));
#751=CARTESIAN_POINT('',(0.137473251128197,-0.0682935970067978,0.00635));
#752=CARTESIAN_POINT('',(-0.0955081017851835,0.0682935970067978,0.00635));
#753=CARTESIAN_POINT('',(-0.0955081017851835,0.0682935970067978,0.00635));
#754=CARTESIAN_POINT('',(0.137473251128197,-0.0682935970067978,0.00635));
#755=CARTESIAN_POINT('',(0.137473251128197,-0.0682935970067978,0.00635));
#756=CARTESIAN_POINT('',(-0.0955081017851835,0.,0.00635));
#757=CARTESIAN_POINT('',(-0.0955081017851835,-0.0682935970067978,0.00635));
#758=CARTESIAN_POINT('',(0.0209825746715066,-0.0682935970067978,0.00635));
#759=CARTESIAN_POINT('',(0.134370115339756,2.08166817117217E-17,0.00635));
#760=CARTESIAN_POINT('',(0.134370115339756,-0.05715,0.00635));
#761=CARTESIAN_POINT('',(0.134370115339756,0.05715,0.00635));
#762=CARTESIAN_POINT('',(0.0209825746715066,0.05715,0.00635));
#763=CARTESIAN_POINT('',(-0.056129884660244,0.05715,0.00635));
#764=CARTESIAN_POINT('',(0.039120115339756,-0.05715,0.00635));
#765=CARTESIAN_POINT('',(-0.056129884660244,-0.05715,0.00635));
#766=CARTESIAN_POINT('',(-0.056129884660244,-5.266487932799E-18,0.00635));
#767=MECHANICAL_DESIGN_GEOMETRIC_PRESENTATION_REPRESENTATION('',(#447),
#768);
#768=(
GEOMETRIC_REPRESENTATION_CONTEXT(3)
GLOBAL_UNCERTAINTY_ASSIGNED_CONTEXT((#769))
GLOBAL_UNIT_ASSIGNED_CONTEXT((#772,#771,#770))
REPRESENTATION_CONTEXT('Part 1','TOP_LEVEL_ASSEMBLY_PART')
);
#769=UNCERTAINTY_MEASURE_WITH_UNIT(LENGTH_MEASURE(1.E-8),#772,
'DISTANCE_ACCURACY_VALUE','Maximum Tolerance applied to model');
#770=(
NAMED_UNIT(*)
SI_UNIT($,.STERADIAN.)
SOLID_ANGLE_UNIT()
);
#771=(
NAMED_UNIT(*)
PLANE_ANGLE_UNIT()
SI_UNIT($,.RADIAN.)
);
#772=(
LENGTH_UNIT()
NAMED_UNIT(*)
SI_UNIT($,.METRE.)
);
#773=PRODUCT_DEFINITION_SHAPE('','',#774);
#774=PRODUCT_DEFINITION('','',#776,#775);
#775=PRODUCT_DEFINITION_CONTEXT('',#782,'design');
#776=PRODUCT_DEFINITION_FORMATION_WITH_SPECIFIED_SOURCE('','',#778,
 .NOT_KNOWN.);
#777=PRODUCT_RELATED_PRODUCT_CATEGORY('','',(#778));
#778=PRODUCT('Part 1','Part 1','Part 1',(#780));
#779=PRODUCT_CATEGORY('','');
#780=PRODUCT_CONTEXT('',#782,'mechanical');
#781=APPLICATION_PROTOCOL_DEFINITION('international standard',
'ap242_managed_model_based_3d_engineering',2020,#782);
#782=APPLICATION_CONTEXT('managed model based 3d engineering');
ENDSEC;
END-ISO-10303-21;
